<svg t="1758873059102" class="icon" viewBox="0 0 1024 1024" version="1.1" xmlns="http://www.w3.org/2000/svg"
  p-id="10045" width="50" height="50">
  <path
    d="M533.091918 976.651768C535.756369 973.934214 540.576095 968.875571 547.244434 961.65081 558.256593 949.719765 570.500537 935.975609 583.669898 920.592156 621.251679 876.691952 658.821998 828.351 693.932548 776.93121 768.48844 667.743271 821.827131 559.768076 844.625199 457.465163 852.522732 422.026173 856.615385 387.650548 856.615385 354.461538 856.615385 164.135717 702.325823 9.846154 512 9.846154 321.674179 9.846154 167.384615 164.135717 167.384615 354.461538 167.384615 388.602382 171.738339 424.020204 180.129065 460.579777 203.351554 561.763434 256.345184 668.564512 330.060633 776.616625 365.167907 828.076871 402.734659 876.48102 440.312676 920.457559 453.480518 935.867526 465.722932 949.637884 476.733544 961.593608 483.400532 968.832866 488.218906 973.902096 490.882003 976.625136L511.973361 998.19125 533.091918 976.651768 533.091918 976.651768ZM490.908082 935.292286 533.117997 935.318918C530.858017 933.008069 526.445622 928.365954 520.189533 921.572864 509.661683 910.141342 497.904097 896.916322 485.225786 882.079236 448.957649 839.635621 412.678247 792.890199 378.862444 743.32299 308.941184 640.832398 259.021497 540.226414 237.708965 447.364714 230.274776 414.9729 226.461538 383.951974 226.461538 354.461538 226.461538 196.763001 354.301462 68.923077 512 68.923077 669.698536 68.923077 797.538462 196.763001 797.538462 354.461538 797.538462 383.139623 793.954993 413.238437 786.962731 444.61516 766.057681 538.423446 715.835746 640.089289 645.144375 743.617591 611.331848 793.136416 575.056014 839.811777 538.79164 882.173086 526.114847 896.981161 514.358793 910.177646 503.832489 921.582293 497.577751 928.358944 493.166708 932.988644 490.908082 935.292286L490.908082 935.292286Z"
    fill="#4A4A4A" p-id="10046"></path>
  <path
    d="M512 489.025642C586.317702 489.025642 646.564104 428.77924 646.564104 354.461538 646.564104 280.143837 586.317702 219.897436 512 219.897436 437.682298 219.897436 377.435897 280.143837 377.435897 354.461538 377.435897 428.77924 437.682298 489.025642 512 489.025642L512 489.025642ZM512 429.948719C470.309582 429.948719 436.51282 396.151958 436.51282 354.461538 436.51282 312.77112 470.309582 278.974359 512 278.974359 553.690419 278.974359 587.487181 312.77112 587.487181 354.461538 587.487181 396.151958 553.690419 429.948719 512 429.948719L512 429.948719Z"
    fill="#4A4A4A" p-id="10047"></path>
</svg>